<?xml version="1.0" encoding="UTF-8"?> <svg xmlns="http://www.w3.org/2000/svg" xmlns:xlink="http://www.w3.org/1999/xlink" id="couch-girl-2" viewBox="0 0 640 585.5"><defs><linearGradient id="linear-gradient" x1="318.38" y1="585.5" x2="318.38" y2="443.58" gradientUnits="userSpaceOnUse"><stop offset="0" stop-color="#fff" stop-opacity="0.05"></stop><stop offset="1" stop-color="#0046d1" stop-opacity="0.3"></stop></linearGradient><linearGradient id="linear-gradient-2" x1="320" y1="120.37" x2="320" y2="101.58" gradientUnits="userSpaceOnUse"><stop offset="0" stop-color="#0046d1"></stop><stop offset="1" stop-color="#002368"></stop></linearGradient></defs><rect y="356.46" width="640" height="25" style="fill:#003fbc;opacity:0.05"></rect><line x1="1" y1="381.46" x2="639" y2="381.46" style="fill:none;stroke:#0046d1;stroke-miterlimit:10;stroke-width:2px;opacity:0.1"></line><ellipse cx="318.38" cy="514.54" rx="299.41" ry="70.96" style="fill:url(#linear-gradient)"></ellipse><path d="M364.9,138S397.46,148.1,401,159.66s0,11.55,0,15.75,9.45,4.73,9.45,4.73L401,182.06s4.38,4.38,10.85,9.63,26.09,9.11,32.74,18.38,2.63,20.49,7.53,29.94,16.1,38.69,16.1,38.69h2.1S463.81,204,457,195.54s-13-10.67-20.66-21.7-8.23-20.66-24.16-29.41S364.9,138,364.9,138Z" transform="translate(0 -0.04)" style="fill:#0046d1"></path><path d="M487.27,395.47l-39.39-.18a9.36,9.36,0,0,1-9.28-8.75L434.22,319a9.37,9.37,0,0,1,8.58-10h48.32a9.34,9.34,0,0,1,9.28,9.27v.53l-3.86,67.92A9.36,9.36,0,0,1,487.27,395.47Z" transform="translate(0 -0.04)" style="fill:#3b2219"></path><path d="M462.23,227.06s.7-44.65-6.65-60.75a84,84,0,0,1-7-31.86h6.82l-9.1-6.3s7.35-14.54,9.28-27-18.73-21.54-18.73-21.54,25.38-2.27,33.61,24.16-4.2,36.06,5.08,42.19,0,81.23,0,81.23l-3.68,33.26h-3.68Z" transform="translate(0 -0.04)" style="fill:#002368"></path><path d="M468.18,307.59S475.89,282,475.89,275s2.27-25.56,12.25-29.76l35.36-1.57s-18.2,7.52-27.66,15.05-14.18,6.65-16.45,18.91q-3.67,16.55-8.93,32.56Z" transform="translate(0 -0.04)" style="fill:#002368"></path><path d="M572,295.16s-13-3.51-17.16-11-11.9-14.71-25.21-18.74-33.61-21.7-41.49-20.3a47.21,47.21,0,0,1,14-1.58c9.27,0,13.3-2.8,21.35-2.8,8.23,0,19.44,13.48,22.94,13.48s11.73,7.7,15.58,14.88S563.77,290.78,572,295.16Z" transform="translate(0 -0.04)" style="fill:#99b5ed"></path><path d="M470.46,310.21s-21.36-71.07-22.93-80.53-8.93-34.31-23.29-38.51l-48.49,3s26.43,7.53,41,16.46,20.65,6.83,26.6,23.28,20.31,75.81,20.31,75.81Z" transform="translate(0 -0.04)" style="fill:#002368"></path><path d="M321.66,271.17s16.8-6.65,20.65-17.33,13-21.71,30.11-29.23,40.79-34.32,51.82-33.62a65.57,65.57,0,0,0-19.43-.17c-12.43,1.4-18.73-1.93-29.76-.7s-23.28,21-28.19,21.53-14.18,12.08-17.68,22.41S331.63,264.17,321.66,271.17Z" transform="translate(0 -0.04)" style="fill:#99b5ed"></path><path d="M465.91,269.25s-4-42.72,0-61.1,8.58-29.94,8.58-39.57,15.58-26.43,25-26.43,52.34-3,55.15-5.25,17.33,3,17.33,3-19.26,3.51-31,13c-8.23,6.65-40.79,8.23-47.62,27.31s-25.21,86-25.21,86Z" transform="translate(0 -0.04)" style="fill:#002368"></path><path d="M588.28,146.53C576.72,137.07,559,135,550.11,136.37s-4.72,2.28-20.13,2.28S495.84,143,495.84,143s31.52-.7,55.32,5.95,32.92-1.4,37.82,14.88c3.5,11.73.35,29.76.35,29.76S599.83,155.81,588.28,146.53Z" transform="translate(0 -0.04)" style="fill:#99b5ed"></path><path d="M532.78,215.68S517,203.6,505.3,203.6s-27,18-31.51,29.76-6.48,76.85-6.48,76.85h3.15s8.75-68.62,17.51-79.65,21.18-5.78,25.21-5.78L517.9,219v6.13s8.05,18.38,28.89,18.38Z" transform="translate(0 -0.04)" style="fill:#002368"></path><path d="M333,261.54c5.78-9.63,1.58-39.56,33.27-51.12,18.55-6.82,8.58-4.37,20.3-11.72,4-2.63,8.58-4.73,12.78-7.36a34.71,34.71,0,0,1-4.2-.17c-5.77,3.5-12.95,7.18-16.28,10.68-3.32,3.85-7.53,4.9-13.48,7-32,12.25-27.31,42.89-32.74,52.34a23.89,23.89,0,0,1-11,9.81A23,23,0,0,0,333,261.54Z" transform="translate(0 -0.04)" style="fill:#ece7ef"></path><path d="M544.69,260a51.35,51.35,0,0,0-10.86-6.13c-7.35-3.15-9.8-1.4-23.28-11-.88.18-1.93.35-3,.53,15.41,10.85,17.51,8.75,25.39,11.73,7.53,3,14.88,7.7,18.2,14,5.26,9.28,10,22.41,20.66,26.26C564.47,292.35,556.59,269.07,544.69,260Z" transform="translate(0 -0.04)" style="fill:#ece7ef"></path><path d="M589.33,193.09a220.75,220.75,0,0,0,3-24.16,35.78,35.78,0,0,0-.17-6.12,27.59,27.59,0,0,0-5.08-11.56c-8.75-10.5-24.51-8.4-43.06-13.65a35.88,35.88,0,0,1-4.21.7c22.76,7.18,47.62,1.4,51.65,24.68.87,6-.35,17.51-1.4,25.56A44.12,44.12,0,0,1,589.33,193.09Z" transform="translate(0 -0.04)" style="fill:#ece7ef"></path><path d="M473.79,246.84a38.49,38.49,0,0,1-.88,18.38c-3.15,8.75-5.6,45-5.6,45l-3.5-.7s1.92-28.18-.88-32.56-14.53-9.8-21.36-15.41-11.9-18-11.9-18,24.68,7.35,31.16,6Z" transform="translate(0 -0.04)" style="fill:#0046d1"></path><rect x="40.71" y="465.6" width="559.07" height="27.98" style="fill:#002a7d"></rect><path d="M618.75,448.94H21.52a50,50,0,0,1,50-49.95H572.74A46.38,46.38,0,0,1,619,445.24Z" transform="translate(0 -0.04)" style="fill:#003fbc"></path><path d="M181.75,247.26H458.52A116.49,116.49,0,0,1,575.05,363.79h0v35.37H65.45V363.79A116.29,116.29,0,0,1,181.75,247.26Z" transform="translate(0 -0.04)" style="fill:#336bda"></path><rect x="21.64" y="446.41" width="597.22" height="21.04" style="fill:#042899"></rect><path d="M529.3,492.88H557.4a0,0,0,0,1,0,0v14a14,14,0,0,1-14,14h0a14,14,0,0,1-14-14v-14a0,0,0,0,1,0,0Z" style="fill:#002368"></path><path d="M79.81,492.92h14a14,14,0,0,1,14,14v14a0,0,0,0,1,0,0H79.81a0,0,0,0,1,0,0V492.92A0,0,0,0,1,79.81,492.92Z" transform="translate(187.72 1013.9) rotate(-180)" style="fill:#002368"></path><path d="M126.74,508.57S103.81,476,122.54,445c9.1-13.13,4-20.49-2.62-23.81S94,425.94,93,448.35s25,53.75,22.75,66.7C116.24,520.65,126.74,508.57,126.74,508.57Z" transform="translate(0 -0.04)" style="fill:#f15b6a"></path><path d="M114.49,497.37c.7-17.68-3.33-12.6-12.61-32.39a45.6,45.6,0,0,1,0-37.64h0a30.61,30.61,0,0,0-8.92,21c-1,22.41,25,53.75,22.75,66.7.53,5.6,11-6.65,11-6.65a52.81,52.81,0,0,1-5.25-9.8C117.46,503.32,114.14,505.25,114.49,497.37Z" transform="translate(0 -0.04)" style="fill:#ed413f"></path><path d="M267.67,503.5s3.85,9.8-5.43,9.45c-10.15-.7-11.55-1.75-11.9,0s3.15,14.53,11,13.48,9.8-7.18,10.5-3.85-2.63,10.5-9.1,12.43-20.84-.7-20.84-.7L227.4,520.13l7-23.64a16.6,16.6,0,0,1,12.43,5.61S265.39,496.49,267.67,503.5Z" transform="translate(0 -0.04)" style="fill:#ffe7d1"></path><path d="M254.54,535.88s-8.75-1.4-9.8,3-2.28-7.18-2.28-7.18l2.63-3.32Z" transform="translate(0 -0.04)" style="fill:#fce9d6"></path><path d="M221.63,538.86c5.6,4.73,15.58,18.38,27.66,25.73,5.42,3.33,24.86,2.46,23.28,9.28,0,2.28-5.08,2.28-9.45,2.1-5.43,0-9.81.18-17.16,0-17.68-.17-20.48,0-32.74-9.45Z" transform="translate(0 -0.04)" style="fill:#f15b6a"></path><path d="M249.46,564.59l-1.4-.87a15.46,15.46,0,0,0-2.8,12.25h.7c7.35,0,11.73.35,17.16.18,4.55,0,10,0,9.8-2.45C274.67,566.87,254.89,567.75,249.46,564.59Z" transform="translate(0 -0.04)" style="fill:#ffe7d1"></path><path d="M150.2,534.48c10.5,14.88,4.9,33.27,1.23,39.22-1.4,2.27,4.72,2.62,4.37,8.93a61.79,61.79,0,0,1-11.38,0c-4.55-2.63-27.66-47.45-25.73-63.73Z" transform="translate(0 -0.04)" style="fill:#e6bc98"></path><path d="M245.09,533.78a41.67,41.67,0,0,1-2.63,13c-1.93,6.3-11.73,33.79-33.09,36.24-25.38,3-54.09-10.16-72.82-25.21-19.61-12.78-34.67-21.54-36.77-38.69a35.23,35.23,0,0,1,13.48-27.31,27.21,27.21,0,0,1,20.84-5.6,35,35,0,0,1,11.9,3.67c8.93,4.2,40.44,28.71,53.92,32.39l2.27.52c9.46.88,11.73-2.62,18.21-5.25C228.8,514,245.09,525.73,245.09,533.78Z" transform="translate(0 -0.04)" style="fill:#f15b6a"></path><path d="M220.58,517.33a73,73,0,0,1-20,5.07c.17,10.51,6.65,21.89,14.88,29.59,3.33,3.15,7,7.18,10.68,10.33a43.32,43.32,0,0,0,6.3,4.9,113.52,113.52,0,0,0,10.15-19.43A53.24,53.24,0,0,0,245.09,534C245.61,523.45,228.8,514,220.58,517.33Z" transform="translate(0 -0.04)" style="fill:#ffe7d1"></path><path d="M210.77,548c6.31,4.2,16.46,16.81,28.54,24.16,5.43,3.33,24.86,2.45,23.28,9.28,0,2.28-5.08,2.28-9.45,2.1-5.43,0-9.81.18-17.16,0-17.68-.17-20.48,0-32.73-9.45Z" transform="translate(0 -0.04)" style="fill:#f15b6a"></path><path d="M239.48,572l-1.22-.88c-2.1,2.1-3.85,7.7-2.8,12.26h18.2c4.56,0,9.63.17,9.63-2.1C264.69,574.4,244.91,575.27,239.48,572Z" transform="translate(0 -0.04)" style="fill:#ffe7d1"></path><path d="M261.89,582.45a.75.75,0,0,1-.7-.7,2.14,2.14,0,0,0-1.4-1.58c-.35-.17-.7-.52-.52-.87s.52-.7.87-.53h0a3.37,3.37,0,0,1,2.45,3c0,.18-.35.53-.7.7Z" transform="translate(0 -0.04)" style="fill:#a16e4b"></path><path d="M152.13,582.63c-.35-.18-.7-.53-.53-.88a1.77,1.77,0,0,0-.87-1.75.83.83,0,0,1-.18-1,.62.62,0,0,1,.88-.18,3.44,3.44,0,0,1,1.57,3.51c0,.17-.52.35-.87.35Z" transform="translate(0 -0.04)" style="fill:#a16e4b"></path><path d="M149.15,582.63c-.35-.18-.7-.53-.52-.88h0a1.78,1.78,0,0,0-.88-1.75.85.85,0,0,1-.35-1h0a.66.66,0,0,1,1-.18,3.45,3.45,0,0,1,1.58,3.51c0,.17-.35.35-.88.35Z" transform="translate(0 -0.04)" style="fill:#a16e4b"></path><path d="M271.7,574.4a.75.75,0,0,1-.71-.7,2.14,2.14,0,0,0-1.4-1.58.85.85,0,0,1-.35-1,1,1,0,0,1,.88-.52,3.36,3.36,0,0,1,2.45,3,.83.83,0,0,1-.87.88Z" transform="translate(0 -0.04)" style="fill:#a16e4b"></path><path d="M244,582.28c-6.31.35-12.61-1.23-18.91-1.58-2.8-.17-7-.7-9.46-2.45-3-2.28-5.25-5.6-7.52-11-.7,3.15.87,8.4,1.92,10.68.7,1.4-1,1.75-3,1.92a50.81,50.81,0,0,1-12.61-.52C171.91,575.45,149,563.89,145,559c-4.38-5.25-4.73-12.43-5.43-18.9-.52-4.91-1.4-10.68-5.25-14.18-.52-.53-1.23-1.06-1.75-1.58,3.68,10.15,5.95,22.06,2.45,32.39l1.4.87a116.52,116.52,0,0,0,17.51,11.56h0l2.1,1.05.35.17,2.1,1,.7.35h0c5.43,2.63,9.63,4.2,9.63,4.2,13.13,5.26,27.31,8.06,40.44,6.48a18.55,18.55,0,0,0,6.12-1.57c4.91,1.75,10.16,1.75,20.66,1.92h17.16c4,0,9.1.18,10-1.57C256.81,582.28,250.51,582.1,244,582.28Z" transform="translate(0 -0.04)" style="fill:#ed413f"></path><path d="M224.78,512.6c-7.7-4-13-24.16-10.86-27,1.23-.87,7,5.08,9.81,8.05a35,35,0,0,0,7.7,5.78c1.58,1.75.18,5.43-1.22,8C228.63,510.5,226.18,513.3,224.78,512.6Z" transform="translate(0 -0.04)" style="fill:#fc6947"></path><path d="M228.28,507.35a3.58,3.58,0,0,1-2.8,1.57,20,20,0,0,1-6.13-7.17c0-.18-.17-.18-.17-.35-3-5.26-4.91-11.56-4-13.48h0s0-.18.17-.18c1.06-.7,5.61,4.38,8.06,6.83,1.92,1.92,4.72,3.68,6.65,5.6C231.26,501.57,230,505.25,228.28,507.35Z" transform="translate(0 -0.04)" style="fill:#f2d8c4"></path><path d="M228.28,507.35a3.58,3.58,0,0,1-2.8,1.57,20,20,0,0,1-6.13-7.17c0-.18-.17-.18-.17-.35-3.16-5.61-4.73-11.56-4-13.48h0s0-.18.17-.18a66.9,66.9,0,0,0,3.16,8.23,37.29,37.29,0,0,0,4.2,6.13A22.66,22.66,0,0,0,228.28,507.35Z" transform="translate(0 -0.04)" style="fill:#e8dfe1"></path><path d="M265.74,499c1.4,2.1,2.28,3.5,1.93,4.55s-3,1.05-4,.87c-2.62-.35-8.4-4-5.77-5.42S263.82,496.14,265.74,499Z" transform="translate(0 -0.04)" style="fill:#1f233a"></path><path d="M262.77,498.07c.17,0,1.4-.17,1.4.35s-1.05.7-1.23.88a3.54,3.54,0,0,1-1.57.35c-.53,0-1.23,0-.7-.53a2.24,2.24,0,0,1,1.05-.7A1.48,1.48,0,0,1,262.77,498.07Z" transform="translate(0 -0.04)" style="fill:#99b5ed"></path><path d="M133.4,526.26c10.5,14.88,3,41.66-.71,47.44-1.4,2.27,4.73,2.62,4.38,8.93a61.8,61.8,0,0,1-11.38,0C121.14,580,98,535.18,100,518.9Z" transform="translate(0 -0.04)" style="fill:#f15b6a"></path><path d="M132.69,573.7a33,33,0,0,0,3.86-10.51c-2.1-3.32-8.58-3.67-12.26-3.32-4,.35-7.88,1.57-9.8,4.9,4.9,9.63,9.45,17,11.2,18a61.8,61.8,0,0,0,11.38,0C137.42,576.32,131.29,576,132.69,573.7Z" transform="translate(0 -0.04)" style="fill:#ffe7d1"></path><path d="M216.38,501.05l-.71-1.93s10.33-3.85,11.56-2.28A37.76,37.76,0,0,0,216.38,501.05Z" transform="translate(0 -0.04)" style="fill:#e8e1e6"></path><path d="M235.28,528.36c3.5-8.93,14-3.15,11.56-17a19.38,19.38,0,0,0-5.43-11.21l-.18-.17-.35-.35-.17-.18a11.55,11.55,0,0,0-4-2.28l-2.1-.52h0c-12.6-.88-27.66,7.88-27.66,19.26a44.06,44.06,0,0,0,3,12.6,2.56,2.56,0,0,1,.35,1.05c2.27,4.9,5.25,8,10,9.81C225.3,540.09,231.78,537.28,235.28,528.36Z" transform="translate(0 -0.04)" style="fill:#f15b6a"></path><path d="M209.72,527.48s-9.1-9.63-16.45-15.93-7.18-12.08-1.75-12.78,23.28,3.85,25.56,2.45S212,525.73,209.72,527.48Z" transform="translate(0 -0.04)" style="fill:#f15b6a"></path><path d="M209.55,527.31a25.06,25.06,0,0,1,0-15.23c.35-1.06-1.23-1.58-2.63,2.62a32,32,0,0,0-1.75,8Z" transform="translate(0 -0.04)" style="fill:#e8e1e6"></path><path d="M213.05,504.72s-18.56-4.2-20.48-3,.87,6.65,15.58,16.45A29.58,29.58,0,0,1,213.05,504.72Z" transform="translate(0 -0.04)" style="fill:#f9ede4"></path><path d="M212.35,504.55a36.12,36.12,0,0,0-5.95,12.25l2.1,1.4a26.64,26.64,0,0,1,4.72-13.48Z" transform="translate(0 -0.04)" style="fill:#e8dfe1"></path><path d="M237.38,506.47a2.63,2.63,0,1,1-3.67.53l.17-.18a2.46,2.46,0,0,1,3.5-.35C237.21,506.3,237.21,506.47,237.38,506.47Z" transform="translate(0 -0.04)" style="fill:#1f233a"></path><path d="M232.31,502.27c-2.63,1.05-8.76,4-9.63,6.65-.7,2.28-2.45.88-1.4-1.75,1.22-3.32,8.22-7,10.33-7.7S235.11,501.22,232.31,502.27Z" transform="translate(0 -0.04)" style="fill:#1f233a"></path><path d="M261.72,513.83a10.59,10.59,0,0,1-2.28-.35.91.91,0,0,1-.52-1.23h0a.9.9,0,0,1,1.22-.52,5.78,5.78,0,0,0,6.13-1.76,4.74,4.74,0,0,0,0-5.6,1,1,0,0,1,1.75-1.05h0c2.27,4,.87,6.65-.18,7.88A8.2,8.2,0,0,1,261.72,513.83Z" transform="translate(0 -0.04)" style="fill:#1f233a"></path><path d="M133.92,582.63c-.35-.18-.7-.53-.52-.88h0a1.78,1.78,0,0,0-.88-1.75.83.83,0,0,1-.18-1,.62.62,0,0,1,.88-.18,3.45,3.45,0,0,1,1.58,3.51c0,.17-.53.35-.88.35Z" transform="translate(0 -0.04)" style="fill:#a16e4b"></path><path d="M130.77,582.63c-.35-.18-.7-.53-.53-.88h0a2.16,2.16,0,0,0-.87-1.75.66.66,0,0,1-.18-1c.18-.35.7-.35,1.05-.18a3.45,3.45,0,0,1,1.58,3.51,1.52,1.52,0,0,1-1,.35Z" transform="translate(0 -0.04)" style="fill:#a16e4b"></path><path d="M237.38,508.05a.7.7,0,1,1-.7-.7.75.75,0,0,1,.7.7Z" transform="translate(0 -0.04)" style="fill:#fff"></path><polygon points="253 313.37 253 313.37 253 313.37 253 313.37" style="fill:#ece7ef"></polygon><path d="M247.92,330.29c5.08-5.32,33.29-43.93,35.14-49.71,2.78-8.33,0-23.82-11.79-19.19-5.09,2.08-43.47,59.65-45.55,62.42A8.34,8.34,0,0,0,230.81,337C237.51,338.84,243.06,335.38,247.92,330.29Z" transform="translate(0 -0.04)" style="fill:#d4aa78"></path><path d="M367.45,331.21c-5.08-5.31-33.29-43.93-35.14-49.71-2.77-8.32,0-23.81,11.56-19.19,5.09,2.08,43.47,59.66,45.55,62.43a8.49,8.49,0,0,1,1.62,5.78,8.6,8.6,0,0,1-6.71,7.4C378.09,340,372.31,336.53,367.45,331.21Z" transform="translate(0 -0.04)" style="fill:#d4aa78"></path><path d="M323.76,319.65l-8.33.47q-16.31.69-32.6.69c3.24,9,9.48,15.72,19.65,15.72a36.87,36.87,0,0,0,20.12-6.24c2.54-1.62,7.63-6,7.17-9.48C329.54,318.27,325.84,319.42,323.76,319.65Z" transform="translate(0 -0.04)" style="fill:#204ae2"></path><path d="M260.4,385.09a78.67,78.67,0,0,0,40.7,11.79c23.12,0,42.54-11.56,44.85-12a52.93,52.93,0,0,1,4.16,8.1v.46l-37.22,43.93a66.26,66.26,0,0,1-19.19.23L256.47,393v-.46C256.47,392.25,260.17,384.85,260.4,385.09Z" transform="translate(0 -0.04)" style="fill:#141a35"></path><path d="M258.09,395c.69-1.39,1.39-2.55,2.08-3.7a78.67,78.67,0,0,0,40.7,11.79c23.12,0,42.54-11.56,44.85-12a35.19,35.19,0,0,1,2.31,4.16l1.62-2.08v-.46a52.93,52.93,0,0,0-4.16-8.1c-2.31.47-21.73,12-44.86,12a77.15,77.15,0,0,1-40.69-11.8c-.23-.23-3.93,7.17-3.93,7.17v.46Z" transform="translate(0 -0.04)" style="fill:#2a2a2b"></path><path d="M353.12,433.87c14.33-6.93,45.78-25.66,59-53.41,1.85-3.93-2.78-20.34-17.8-15-9.25,3.24-57.81,19.66-65.67,30.06-12.72,16.88-13.18,32.14-15.95,41.85C319.82,440.35,346,437.34,353.12,433.87Z" transform="translate(0 -0.04)" style="fill:#002368;isolation:isolate"></path><path d="M251.62,433.87c-14.34-6.93-56-37-57.81-53.64-.46-4.39-4.62-17.34,13.18-16.88,9.25,3.24,61.51,22.2,70.29,31.91,11.1,12,14.57,32.83,16,41.85C285.84,440.35,258.78,437.34,251.62,433.87Z" transform="translate(0 -0.04)" style="fill:#002368"></path><path d="M300.87,396.65c-2.55,0-5.09-.23-7.63-.47v6.25a1.58,1.58,0,0,0,1.61,1.62h12.26a1.59,1.59,0,0,0,1.62-1.62v-6.25A29.73,29.73,0,0,1,300.87,396.65Z" transform="translate(0 -0.04)" style="fill:#323233"></path><path d="M307.11,396.42V401a1,1,0,0,1-.93.92h-10.4a1,1,0,0,1-.93-.92v-4.39h-1.61v6.24a1.58,1.58,0,0,0,1.61,1.62h12.26a1.59,1.59,0,0,0,1.62-1.62v-6.24h-1.62Z" transform="translate(0 -0.04)" style="fill:#dbddd9"></path><path d="M313.12,422.54s38.61,3.7,40.92,4.4-6,16.41-9.24,16.87-32.14-6.93-34.69-8.09S313.12,422.54,313.12,422.54Z" transform="translate(0 -0.04)" style="fill:#a16e4b"></path><path d="M310.35,439a4.88,4.88,0,0,0,.92-1.16,22.85,22.85,0,0,0,6-14.56,20.22,20.22,0,0,1-4.62-.93c-4.86-2.08-16.19-7.86-29.83-15-.23,6-1.16,12.26-1.85,18.27,8.09,2.31,15.95,4.85,21.5,6.93A10.18,10.18,0,0,0,310.35,439Z" transform="translate(0 -0.04)" style="fill:#a16e4b"></path><path d="M346.88,446.36C362.6,445,362.6,438,362.6,434.8c0-2.78-3-6.94-11.79-8.33a23.45,23.45,0,0,0-6,15.26c-17.81.7-33.76-5.55-42.08-8.78.92,2.77,3.69,6,10.4,6.7C316.82,439.88,337.17,447.05,346.88,446.36Z" transform="translate(0 -0.04)" style="fill:#ccdaf6"></path><path d="M312.66,422.54a120.31,120.31,0,0,1-12-5.78h0c-3.7,2.08-8.09,4.63-9.24,5.09s-9.72,1.39-15.5,2.54c9.72,2.55,19.89,5.78,26.83,8.33a4.73,4.73,0,0,0,.92,1.85c7.17-3.93,25.2-6.48,32.14-9.48A158,158,0,0,1,312.66,422.54Z" transform="translate(0 -0.04)" style="fill:#3b2219;opacity:0.050000000745058;isolation:isolate"></path><path d="M207,363.58S256,392,287.92,408.9A97.28,97.28,0,0,1,286.76,423a114.93,114.93,0,0,1-11.1,15c-11.56-7.63-17.11-11.09-24-13.18-46.94-14.33-51.1-21-62.43-40.92C184.8,376.3,192.43,359.65,207,363.58Z" transform="translate(0 -0.04)" style="fill:#0046d1"></path><path d="M293.47,422.54l-39.54,4.63-.69,14.33,5.78,3.7h11.79l24-6.24s7.17-1.16,8.33-7.17S293.47,422.54,293.47,422.54Z" transform="translate(0 -0.04)" style="fill:#d4aa78"></path><path d="M325.84,421.85c-.93-4.16-1.62-9-3.7-12.72-14.11,7.17-25.9,12.95-30.75,14.11-.93.23-1.85.46-3,.69,1.85,5.78,7.17,9.71,13.18,11.33A8.17,8.17,0,0,0,303,432a208.9,208.9,0,0,1,23.35-6.93A13.67,13.67,0,0,0,325.84,421.85Z" transform="translate(0 -0.04)" style="fill:#d4aa78"></path><path d="M398,364.28s-49,28.44-80.92,45.31a95.9,95.9,0,0,0,1.16,14.11,100.64,100.64,0,0,0,11.09,15c11.57-7.63,16.88-11.1,24.05-13.18,46.94-14.34,51.1-20.81,62.43-40.93C419.94,377,412.31,360.35,398,364.28Z" transform="translate(0 -0.04)" style="fill:#0046d1"></path><path d="M259.48,443.12a21.45,21.45,0,0,0-1.85-16.42h-1.16c-11.79.24-13.18,5.78-13.18,8.79s6.48,10.17,11.33,10.87c15,1.85,32.83-4.86,36.53-5.32a14.1,14.1,0,0,0,8.33-3.47C289.54,440.11,259.48,447.74,259.48,443.12Z" transform="translate(0 -0.04)" style="fill:#ccdaf6"></path><path d="M245.37,322.89l27.52,40.23a21.3,21.3,0,0,0,11.56,9.48c5.55,1.62,11.56,1.85,16.42,4.86a25.6,25.6,0,0,1,9,11.33,1.72,1.72,0,0,1,.23,1.15c-.23.46-.92,1.16-1.38.93a4.89,4.89,0,0,1-1.16-.7c-1.85-1.62-3-4.16-4.85-5.78-1.16-1.15-3.24-3.47-5.09-2.77a54.68,54.68,0,0,1,10.17,12.71c.46.7.93,1.62.46,2.32a1.79,1.79,0,0,1-2.31.46,6.42,6.42,0,0,1-1.62-1.85,37.69,37.69,0,0,0-9.94-10.17,30.86,30.86,0,0,1,8.79,8.55,5.14,5.14,0,0,1,1.15,2.54,2.77,2.77,0,0,1-.92,2.55,2.48,2.48,0,0,1-2.78-.46,9.36,9.36,0,0,1-1.85-2.32,25.8,25.8,0,0,0-7.86-7.16l5.55,5.08c.7.7,1.62,1.62,1.39,2.78a2.19,2.19,0,0,1-2.54,1.15,8.19,8.19,0,0,1-2.32-1.62,37.09,37.09,0,0,0-6-4.39c-3.93-2.31-8.32-3.93-12.25-6A45.62,45.62,0,0,1,264.56,377l-20.11-20.81q-9-9-17.34-18.72a11.64,11.64,0,0,1,1.39-16.19" transform="translate(0 -0.04)" style="fill:#d4aa78"></path><path d="M370.23,324.05l-27.52,40.23a21.3,21.3,0,0,1-11.56,9.48c-5.54,1.62-11.56,1.85-16.41,4.85a25.73,25.73,0,0,0-9,11.33,1.75,1.75,0,0,0-.23,1.16c.23.46.92,1.15,1.39.92a5,5,0,0,0,1.15-.69c1.85-1.62,3-4.16,4.86-5.78,1.15-1.16,3.24-3.47,5.32-2.78A55,55,0,0,0,308,395.49c-.46.69-.92,1.62-.46,2.31a1.79,1.79,0,0,0,2.31.47,6.25,6.25,0,0,0,1.62-1.85,37.87,37.87,0,0,1,9.94-10.18,31,31,0,0,0-8.78,8.56,8.33,8.33,0,0,0-1.16,2.54,2.73,2.73,0,0,0,.93,2.54,2.43,2.43,0,0,0,2.77-.46,9.09,9.09,0,0,0,1.85-2.31,25.82,25.82,0,0,1,7.86-7.17L319.36,395c-.69.69-1.62,1.62-1.38,2.77a2.18,2.18,0,0,0,2.54,1.16,6,6,0,0,0,2.54-1.62,35.93,35.93,0,0,1,6-4.39c3.93-2.31,8.33-3.93,12.26-6a45.6,45.6,0,0,0,10.17-8.79l20.12-20.81q9-9,17.34-18.73a11.62,11.62,0,0,0-1.39-16.18" transform="translate(0 -0.04)" style="fill:#d4aa78"></path><path d="M251.15,397.8,265.49,411l81.62.23,14.56-13.64a9.5,9.5,0,0,0,3-6.7H248.15A9.6,9.6,0,0,0,251.15,397.8Z" transform="translate(0 -0.04)" style="fill:#d1d3d5"></path><polygon points="248.15 390.83 269.88 408.63 345.49 408.63 364.68 390.83 248.15 390.83" style="fill:#a3a7ab"></polygon><path d="M269.88,412.6h73.3a6.81,6.81,0,0,0,6.93-6.94H263a7,7,0,0,0,6.93,6.94Z" transform="translate(0 -0.04)" style="fill:#d1d3d5"></path><path d="M337.17,275.72c-2.55-3-14.8-17.57-17.11-21.27l5.78-19.88-20.58-6-7.17,24.51a19,19,0,0,1-15.26,5.78,14.59,14.59,0,0,0-10.4,3.47c-4.17,3.47-7.87,10.41-6.48,24.05,2.31,26.36,10.87,49.94,9,66.36l53.41-.7c.23-7.86,1.39-17.8,4.16-25.43,3-8.56,10.17-9.48,13.18-22.89S340.63,279.88,337.17,275.72Z" transform="translate(0 -0.04)" style="fill:#d4aa78"></path><path d="M321.21,249.83l-.92,3.46c-.47-.23-.7-.23-1.16-.46A25.68,25.68,0,0,1,306.65,241a41.56,41.56,0,0,1-2.09-10.64l.24-1.15a29.74,29.74,0,0,0,1.85,7.86c2.54,5.78,8.32,9.71,12.48,11.79A8.27,8.27,0,0,0,321.21,249.83Z" transform="translate(0 -0.04)" style="fill:#a16e4b"></path><path d="M345.26,308.32a93.51,93.51,0,0,0-12,18c-1.39,3.93-1.62,25.66-1.62,25.66-18.73,16.88-59.19-.69-59.19-.69,1.38-6.94-4.4-45.78-4.63-48.32.23.92,2.08,6,7.63,1.15,1.85-1.62,3-6.93,3.47-13.18a299.67,299.67,0,0,0-.23-32.14h0A51.84,51.84,0,0,0,288.84,257a27.14,27.14,0,0,0,9.25-3.93s1.85,22.2,14.8,26.13,10.17-20.35,10.17-20.35l21,2.78S351.5,300.69,345.26,308.32Z" transform="translate(0 -0.04)" style="fill:#ffc500"></path><path d="M352.19,234.8a25.88,25.88,0,0,1-1.15,3,17.94,17.94,0,0,1-3.24,4.86,39.15,39.15,0,0,1-12.72,9.25,14.2,14.2,0,0,1-12.25-.23c-5.09-2.55-12.25-7.17-15.49-14.57a37.81,37.81,0,0,1-2.31-10.4c-.47,0-.93.23-1.39,0-4.16-.24-6.94-7.4-6.47-11.57a7.63,7.63,0,0,1,6.7-6.93,33,33,0,0,1,.93-6.71,25.72,25.72,0,0,1,50.4,8.56A87.2,87.2,0,0,1,352.19,234.8Z" transform="translate(0 -0.04)" style="fill:#d4aa78"></path><path d="M350.11,405.66H263l-13.18-48.32a4.19,4.19,0,0,1,2.77-5.09c.46,0,.7-.23,1.16-.23H359.36a4.14,4.14,0,0,1,4.16,4.16,2.09,2.09,0,0,1-.23,1.16Z" transform="translate(0 -0.04)" style="fill:#fafbfb"></path><path d="M314.28,383.93c0,2.31-3.7,4.16-8.1,4.16s-8.09-1.85-8.09-4.16,3.7-4.16,8.09-4.16S314.28,381.62,314.28,383.93Z" transform="translate(0 -0.04)" style="fill:#d1d3d5"></path><path d="M322.83,229.94a6.15,6.15,0,1,1-4.16-7.63c3.24.7,5.09,4.16,4.16,7.63Z" transform="translate(0 -0.04)" style="fill:#a16e4b;opacity:0.25"></path><path d="M352.19,234.8a25.88,25.88,0,0,1-1.15,3,17.94,17.94,0,0,1-3.24,4.86,7.67,7.67,0,0,1-3.24,0A6.15,6.15,0,1,1,348,230.87a5.54,5.54,0,0,1,4.16,3.93Z" transform="translate(0 -0.04)" style="fill:#a16e4b;opacity:0.25"></path><path d="M337.08,238.39c-10.87,10.4-12.95-3.7-12.95-3.7Z" transform="translate(0 -0.04)" style="fill:#fff"></path><path d="M342.71,210.06a4.43,4.43,0,0,1,3-.23A14.23,14.23,0,0,1,348.5,211a6.17,6.17,0,0,1,2.08,2.08,10.09,10.09,0,0,1,1.15,2.78c0,.46-.23.92-.69.92s-.7,0-.93-.46h0c-.46-.69-.92-1.16-1.38-1.85a11.18,11.18,0,0,0-1.62-1.39,3.76,3.76,0,0,0-2.08-.69l-2.08-.69h-.24c-.46-.23-.46-.7-.23-1.16h0C342.48,210.29,342.48,210.06,342.71,210.06Z" transform="translate(0 -0.04)" style="fill:#a16e4b"></path><path d="M334.16,207.51a4.69,4.69,0,0,0-2.31-1.85,11.81,11.81,0,0,0-3-.46,7,7,0,0,0-3,.7,8.36,8.36,0,0,0-2.32,1.61,1.06,1.06,0,0,0,0,1.16,1.42,1.42,0,0,0,.93.23h0a8.23,8.23,0,0,1,2.08-.92,6.4,6.4,0,0,1,4.16.23,8.31,8.31,0,0,0,2.31.46h.24a1,1,0,0,0,.92-.92C334.39,207.75,334.39,207.51,334.16,207.51Z" transform="translate(0 -0.04)" style="fill:#ff4a41"></path><path d="M334.85,219.08a4.61,4.61,0,0,1-.23,2.54,24.13,24.13,0,0,1-.92,2.31,10.86,10.86,0,0,1-1.16,2.31c-.23.23-.23.47.23.7.23.23.7.46.93.69-.46,0-.93-.23-1.39-.23-.23,0-.46-.23-.46-.69v-.93a24.13,24.13,0,0,1,.92-2.31A12.84,12.84,0,0,0,334.85,219.08Z" transform="translate(0 -0.04)" style="fill:#242424"></path><path d="M302,212.37a4.44,4.44,0,0,1,2.31.69,12.91,12.91,0,0,1,2.08,1.62,7.17,7.17,0,0,1,1.16,2.31,4.85,4.85,0,0,1-.23,2.55,8.17,8.17,0,0,0-.46-2.31,5,5,0,0,0-1.16-1.85A23,23,0,0,0,302,212.37Z" transform="translate(0 -0.04)" style="fill:#242424"></path><path d="M303,221.16a5.14,5.14,0,0,1-.23-1.85,2.62,2.62,0,0,1,.69-1.85,3.8,3.8,0,0,1,1.39-1.39,3.27,3.27,0,0,1,2.08-.23c-.47.23-.93.69-1.39.92a4.46,4.46,0,0,0-.93,1.16A6.15,6.15,0,0,0,303,221.16Z" transform="translate(0 -0.04)" style="fill:#242424"></path><circle cx="345.95" cy="221.12" r="1.85" style="fill:#1f233a"></circle><circle cx="326.53" cy="216.03" r="1.85" style="fill:#1f233a"></circle><path d="M342.25,196.42s-4.16,25.66-38.15,12c0,0-5.08,1.16-4.62,8.55a11.66,11.66,0,0,0,5.78,9.95s2.08,30.29-7.86,49.94,15.49,22.43,15.49,22.43-27.52,10.63-31.91-6,.69-32.6-9.48-31.44l-14.1,17.34s-.7-25.2,12.48-44.39,21-40,26.82-51.1,28.44-26.59,55.26-5.55C357.05,181.85,351,197.57,342.25,196.42Z" transform="translate(0 -0.04)" style="fill:#1f233a"></path><path d="M339.25,188.79s5.31,20.11,15.72,30.29c0,.46-4.16,39.3-33.76,30.75a28.14,28.14,0,0,0,5.32,25.43c9.94,11.56,26.82-2.31,30.29,2.54s8.79-12.25,6.7-24.51a147.28,147.28,0,0,1,.7-42.77,34.59,34.59,0,0,0-18.5-36.76C334.62,176.53,339.25,188.79,339.25,188.79Z" transform="translate(0 -0.04)" style="fill:#1f233a"></path><g style="opacity:0.25"><path d="M435.16,327.91a79.24,79.24,0,0,1,6.65-17.68c4.2-7.53,7-9.28,7-16.63s-1.05-11.55,4.9-16.46,2.45-13.65,5.78-16.45,18-12.78,18-12.78a44.68,44.68,0,0,0-23.46-2.63c-12.6,2.28-14.35-6.3-22.93-3.5s-7.18,21.88-5.78,29.59-5.08,16.63-6,23.46S435.16,327.91,435.16,327.91Z" transform="translate(0 -0.04)" style="fill:#002a7d"></path><path d="M447.76,245.81c-15.41,18.38-12.78,34-13.13,38.51-.88,15.58-5.78,24.51.53,43.77h0c-5.61-19.44-.53-28.19.7-43.77.7-5.95-.53-11.38,3.85-21.53a63.18,63.18,0,0,1,11-16.81C449.69,246,448.81,245.81,447.76,245.81Z" transform="translate(0 -0.04)" style="fill:#002a7d"></path></g><path d="M431.42,326.67A80.23,80.23,0,0,1,438.07,309c4.2-7.53,7-9.28,7-16.64S444,280.8,450,275.9s2.45-13.66,5.77-16.46,18-12.78,18-12.78A44.69,44.69,0,0,0,450.33,244c-12.61,2.27-14.36-6.31-22.94-3.5s-7.17,21.88-5.77,29.58-5.08,16.63-6,23.46S431.42,326.67,431.42,326.67Z" transform="translate(0 -0.04)" style="fill:#99b5ed"></path><path d="M444,244.56c-15.41,18.38-12.78,34-13.13,38.52-.88,15.58-5.78,24.51.52,43.76h0c-5.6-19.43-.52-28.18.7-43.76.7-6-.52-11.38,3.85-21.54a63.53,63.53,0,0,1,11-16.8C446,244.74,445.08,244.56,444,244.56Z" transform="translate(0 -0.04)" style="fill:#ece7ef"></path><line x1="319.98" x2="319.98" y2="73.79" style="fill:none;stroke:#002a7d;stroke-miterlimit:10"></line><path d="M366.93,110.66c-.82-5-21.51-9.08-46.93-9.08s-46.11,4-46.93,9.08a1.65,1.65,0,0,0,0,.31c0,5.19,21,9.4,47,9.4s47-4.21,47-9.4A1.65,1.65,0,0,0,366.93,110.66Z" transform="translate(0 -0.04)" style="fill:url(#linear-gradient-2)"></path><path d="M311.56,97.63h17.15a0,0,0,0,1,0,0v21.44a8.58,8.58,0,0,1-8.58,8.58h0a8.58,8.58,0,0,1-8.58-8.58V97.63a0,0,0,0,1,0,0Z" style="fill:#ffd000"></path><path d="M320,101.58c25.42,0,46.11,4,46.93,9.08h0a47,47,0,0,0-93.94,0h0C273.89,105.62,294.58,101.58,320,101.58Z" transform="translate(0 -0.04)" style="fill:#e5ecfa"></path></svg> 